<?xml version="1.0" encoding="UTF-8"?>
<svg width="700pt" height="700pt" version="1.1" viewBox="0 0 700 500" xmlns="http://www.w3.org/2000/svg">
    <path d="m227.54 140c-21.641 0-39.41 17.766-39.41 39.41 0 21.645 17.766 39.391 39.41 39.391 21.641 0 39.324-17.75 39.324-39.391s-17.68-39.41-39.324-39.41zm244.88 0c-21.641 0-39.324 17.766-39.324 39.41 0 21.645 17.68 39.391 39.324 39.391 21.641 0 39.41-17.75 39.41-39.391s-17.766-39.41-39.41-39.41zm-122.36 35c-21.641 0-39.41 17.766-39.41 39.41 0 21.645 17.766 39.391 39.41 39.391 21.641 0 39.324-17.75 39.324-39.391s-17.68-39.41-39.324-39.41zm-148.82 52.516v0.015625h-0.015625c-6.1367 0-12 1.1133-17.484 3.0586-5.0664 1.8008-9.7734 4.3594-13.996 7.5352-0.03125 0.023438-0.070312 0.042969-0.10156 0.066406-4.1719 3.1562-7.8477 6.9062-10.922 11.145-0.058594 0.078124-0.11328 0.16016-0.17188 0.23828-1.5 2.0938-2.8633 4.2891-4.0508 6.5977-0.046876 0.09375-0.074219 0.19531-0.12109 0.28906-1.1758 2.3242-2.1992 4.7383-3.0234 7.2461-0.80078 2.4414-1.4062 4.957-1.8477 7.5352-0.050781 0.30078-0.089844 0.60156-0.13672 0.90625-0.39062 2.5781-0.66797 5.1953-0.66797 7.8789v43.734c-0.007812 3.543 2.125 6.7422 5.3984 8.1016 1.0781 0.45312 2.2344 0.68359 3.4023 0.68359h0.015625c34.984 0.042969 70.055-0.03125 104.98-0.03125l0.003906-17.48c0-1.7422 0.12109-2.2109 0.10156-1.4023 0.050782-2.2578 0.21875-4.5 0.51172-6.7148h0.015625c0.13281-0.98438 0.28906-1.9961 0.48047-3.0234 0.44141-2.3828 0.99609-4.832 1.7773-7.2969 0.35156-1.1016 0.64453-1.7695 0.75391-2.0664 0.71484-2.0039 1.5273-3.9492 2.4258-5.8281l0.015625-0.015625c0.22656-0.46875 0.53906-1.1953 1.0273-2.1211 1.1914-2.2617 2.5156-4.4219 3.9648-6.4961l0.015625-0.015624c0.46875-0.66797 0.875-1.207 1.2148-1.6562 1.4688-1.9609 3.0664-3.8633 4.8008-5.6719l0.019531-0.023437c-0.13281 0.13672 0.019531-0.046875 0.49609-0.53125 2.0352-2.0742 4.1914-3.9609 6.4414-5.6914h0.015625c0.50781-0.39062 0.75781-0.57031 0.76953-0.58203 4.2695-3.1719 9.0117-5.6875 14.016-7.6719-5.9062-12.785-16.715-22.871-30.094-27.633v0.10156c-5.4453-2.0234-11.328-3.1602-17.52-3.1602v-0.015625c-17.523 0.023438-34.996 0-52.516 0zm244.96 0v0.015625c-6.1914 0.003906-12.074 1.1406-17.516 3.1602v-0.10156c-13.379 4.7656-24.188 14.852-30.094 27.633 5.0039 1.9844 9.75 4.5 14.012 7.6719 0.011719 0.007813 0.26172 0.19141 0.76953 0.58203h0.015625c2.25 1.7305 4.4102 3.6172 6.4414 5.6914 0.47656 0.48438 0.62891 0.66406 0.49609 0.53125l0.015625 0.015625c1.7344 1.8125 3.332 3.7148 4.8008 5.6719 0.33984 0.44922 0.74609 0.99219 1.2148 1.6562l0.015625 0.015625c1.4492 2.0742 2.7734 4.2344 3.9648 6.4961 0.48828 0.92187 0.80078 1.6484 1.0273 2.1211l0.015625 0.015625c0.90234 1.8789 1.7109 3.8242 2.4258 5.8281 0.10547 0.29688 0.40234 0.96484 0.75391 2.0664 0.78125 2.4648 1.3359 4.9141 1.7773 7.2969 0.19141 1.0273 0.34766 2.043 0.48047 3.0234h0.015625c0.29297 2.2148 0.46094 4.457 0.51172 6.7148-0.019531-0.80859 0.10156-0.33984 0.10156 1.4023v17.48c34.93 0.0625 70 0.03125 104.98 0.03125h0.015624c1.168 0 2.3242-0.23047 3.4023-0.68359 3.2734-1.3555 5.4062-4.5547 5.3984-8.1016l0.003906-43.715c0-2.6836-0.27344-5.3008-0.66797-7.8789-0.046875-0.30469-0.085937-0.60547-0.13672-0.90625-0.4375-2.582-1.043-5.0977-1.8438-7.5352-0.82422-2.5078-1.8477-4.9219-3.0234-7.2461-0.046875-0.09375-0.074219-0.19922-0.11719-0.28906-1.1836-2.3086-2.5469-4.5-4.0508-6.5977-0.058594-0.078125-0.11719-0.16016-0.17188-0.23828-3.0703-4.2383-6.75-7.9883-10.922-11.145-0.03125-0.023438-0.070312-0.042969-0.10156-0.066407-4.2227-3.1797-8.9297-5.7383-13.996-7.5352-5.4805-1.9453-11.348-3.0586-17.484-3.0586h-0.015625v-0.015624c-17.523 0.023437-34.996 0-52.516 0zm-122.45 35c-6.1445 0.007813-12.016 1.1367-17.5 3.0938v-0.015625c-0.078125 0.027344-0.14453 0.074219-0.22266 0.10156-4.8555 1.7578-9.375 4.1992-13.449 7.2305-0.22656 0.16797-0.46094 0.32422-0.68359 0.49609-1.957 1.5039-3.8125 3.1289-5.5391 4.8867-0.14844 0.14844-0.28125 0.30859-0.42578 0.46094-1.4727 1.5352-2.8398 3.168-4.1172 4.8711-0.35938 0.47656-0.71875 0.94531-1.0586 1.4336-1.2461 1.7852-2.3789 3.6367-3.4023 5.5703-0.31641 0.59766-0.59375 1.2148-0.89062 1.8281-0.77734 1.6211-1.4766 3.2852-2.0859 4.9922-0.21484 0.59375-0.45703 1.1719-0.64844 1.7773-0.64062 2.0273-1.1289 4.1133-1.5195 6.2383-0.16016 0.85938-0.29297 1.7227-0.41016 2.5977-0.25391 1.8906-0.39844 3.8125-0.44531 5.7578-0.007812 0.40625-0.10156 0.78906-0.10156 1.1953v43.734c-0.019531 4.8594 3.9258 8.8008 8.7852 8.7852h11.074c-0.007813-0.42969-0.066406-0.84766-0.066406-1.2812 1.7461-24.422 12.414-43.086 32.711-52.602h0.015625c5.418-2.707 11.305-4.5898 17.5-5.5195 2.8594-0.42969 5.7578-0.71875 8.7344-0.71875 2.9844 0 5.9023 0.28516 8.7656 0.71875 6.1992 0.92969 12.082 2.8086 17.5 5.5195 20.613 11.512 32.523 31.098 32.711 52.602 0 0.43359-0.058594 0.85156-0.070313 1.2812h11.09c4.8594 0.019531 8.8008-3.9258 8.7852-8.7852l-0.003906-43.73c0-0.40625-0.09375-0.79297-0.10156-1.1953-0.042969-1.9492-0.19141-3.8672-0.44531-5.7578-0.11719-0.875-0.25-1.7383-0.41016-2.5977-0.40234-2.1719-0.89453-4.3047-1.5547-6.375-0.15234-0.48047-0.36328-0.92969-0.53125-1.4023-0.65625-1.8672-1.418-3.6875-2.2734-5.4531-0.22656-0.46484-0.42578-0.94141-0.66797-1.4023-1.082-2.0781-2.3164-4.0625-3.6562-5.9648-0.22656-0.32422-0.46484-0.64062-0.69922-0.95703-1.3984-1.8906-2.8945-3.6953-4.5273-5.3828-0.042968-0.042969-0.074218-0.09375-0.11719-0.13672-0.015625-0.015625-0.035156-0.019531-0.054687-0.035156-1.7773-1.8164-3.6875-3.4961-5.707-5.043-0.15234-0.11719-0.30859-0.22656-0.46094-0.33984-4.1289-3.0859-8.7227-5.5547-13.656-7.332-0.046875-0.015625-0.085938-0.050781-0.13672-0.066406-5.4844-1.957-11.367-3.0742-17.516-3.0781h-0.015625-52.5zm26.266 53.664c-1.8086 0.015624-3.6172 0.12891-5.418 0.33984l10.172 8.6328 14.473-5.1445c-6.0938-2.5234-12.625-3.8242-19.227-3.8281zm-16.113 2.7148c-7.2656 2.4492-13.871 6.5234-19.312 11.914v0.015625l5.3984 20.062 9.2305 3.5547 18.133-10.457 1.7773-12.117zm44.23 5.8945-0.25781 1.4023-20.098 7.1602-1.7422 11.672 15.449 13.844 11.059-1.9648 5.4688-20.422 1.9492-0.51172c-3.3125-4.3438-7.3047-8.1172-11.832-11.176zm11.824 11.18c0.8125 1.0469 1.582 2.125 2.3086 3.2305h0.015625c-0.73047-1.1055-1.5078-2.1836-2.3242-3.2305zm-82.168 3.2812c-4.8242 7.5117-7.5508 16.172-7.8945 25.086l11.52-11.52zm87.242 4.8867-4.1016 15.246 9.1953 9.1758c0.058594-0.76172 0.097656-1.5273 0.12109-2.2891-0.015625-7.6797-1.7969-15.25-5.2109-22.133zm-44.227 7.9453-16.305 9.418 3.9141 18.422 18.746 1.9297 7.6406-17.191zm-33.41 7.1758-13.141 13.109-1.793 1.793-2.0664-0.54688c0.71484 4.7617 2.1133 9.3945 4.1523 13.758l20.336 1.9805 5.1953-6.5469-4.3398-20.285zm67.18 6.1367-11.383 2.0352-8.4609 18.988 3.9492 7.3828 21.328-0.03125 0.89063 1.5391c3.4531-4.8516 6.0117-10.281 7.5547-16.031zm-47.871 23.125-4.7852 6.0352 8.8008 19.379-0.97266 1.3672c3.3789 0.70312 6.8203 1.0586 10.27 1.0586 0.13281-0.003906 0.26172-0.011719 0.39453-0.015625l10.613-18.254-3.9141-7.4336zm53.457 7.7422c-1.5625 2.1133-3.2891 4.1016-5.1602 5.9492 1.1992-1.168 2.3398-2.3945 3.418-3.6758 0.60156-0.74219 1.1836-1.5 1.7422-2.2734zm-79.98 0.46094c5.2773 6.8828 12.254 12.281 20.25 15.672l-6.5078-14.32zm58.395 5.793-7.2461 12.492c8.7422-2.0078 16.785-6.3164 23.293-12.477z"/>
</svg>
